<svg width="52" height="52" viewBox="0 0 52 52" fill="none" xmlns="http://www.w3.org/2000/svg">
<g clip-path="url(#clip0_38_6279)">
<path d="M52 26C52 32.9449 49.2955 39.474 44.3848 44.3848C39.474 49.2955 32.9449 52 26 52C19.0551 52 12.526 49.2955 7.6152 44.3848C2.70445 39.474 0 32.9449 0 26C0 19.0551 2.70445 12.526 7.6152 7.6152C12.526 2.70445 19.0551 0 26 0C32.9449 0 39.474 2.70445 44.3848 7.6152C49.2955 12.526 52 19.0551 52 26Z" fill="#F4CA14"/>
<path d="M50.5781 17.3672H1.42188C2.69672 13.7435 4.78093 10.4214 7.5805 7.62411C12.5008 2.70782 19.042 0 26 0C32.958 0 39.4992 2.70782 44.4195 7.62411C47.2191 10.4214 49.3033 13.7435 50.5781 17.3672Z" fill="#C71024"/>
<path d="M50.5781 34.6328C49.3033 38.2565 47.2191 41.5786 44.4195 44.3759C39.4992 49.2922 32.958 52 26 52C19.042 52 12.5008 49.2922 7.5805 44.3759C4.78093 41.5786 2.69672 38.2565 1.42188 34.6328H50.5781Z" fill="#00683C"/>
<path opacity="0.13" d="M52 26.0049C52 32.9483 49.2959 39.4758 44.3863 44.3857C39.4767 49.2957 32.9497 52 26.0067 52C20.7088 52 15.6535 50.4255 11.375 47.4983C15.7661 49.4104 20.6095 50.0857 25.4738 49.4126C32.451 48.4472 38.6338 44.8216 42.8847 39.2055C47.1345 33.5883 48.9439 26.6526 47.9785 19.6761C47.1334 13.5778 44.2594 8.08639 39.7988 3.96094C41.4416 4.99258 42.9807 6.21841 44.3863 7.62408C49.2959 12.534 52 19.0615 52 26.0049Z" fill="#160204"/>
<path opacity="0.25" d="M38.3906 3.11362C33.7573 1.77763 28.8314 1.7136 24.0478 2.97781C17.0753 4.8217 11.2392 9.26909 7.61208 15.5008C3.98607 21.7335 3.00419 29.0042 4.84867 35.9745C5.97413 40.2297 8.07044 44.061 10.952 47.2266C9.77686 46.3896 8.66354 45.4478 7.62202 44.4066C2.70708 39.4933 0 32.9613 0 26.0131C0 19.0649 2.70708 12.5329 7.62202 7.61954C12.537 2.7062 19.0711 0 26.0216 0C30.4119 0 34.6354 1.07983 38.3906 3.11362Z" fill="white"/>
<path d="M31.5658 25.389L28.9095 27.4467L29.8824 30.5996C29.9889 30.9443 29.8651 31.3193 29.5754 31.5301C29.2857 31.7407 28.8952 31.74 28.6067 31.5278L25.9895 29.6036L23.2419 31.5377C23.0998 31.6376 22.9346 31.6875 22.7698 31.6875C22.5966 31.6875 22.4237 31.6326 22.2777 31.5231C21.9925 31.3096 21.8735 30.9356 21.982 30.5936L22.9958 27.3944L20.4308 25.3865C20.1507 25.1673 20.0395 24.7921 20.1538 24.4528C20.2681 24.1136 20.5829 23.8856 20.9367 23.8856H24.1915L25.1933 20.8822C25.3059 20.5451 25.6163 20.3166 25.9675 20.3125H25.9772C26.3247 20.3125 26.6357 20.5325 26.7547 20.8641L27.8397 23.8856H31.0632C31.4179 23.8856 31.7331 24.1146 31.8469 24.4549C31.9606 24.7951 31.8475 25.1707 31.5658 25.389Z" fill="#282828"/>
</g>
<defs>
<clipPath id="clip0_38_6279">
<rect width="52" height="52" fill="white"/>
</clipPath>
</defs>
</svg>
