<svg width="216" height="322" viewBox="0 0 216 322" fill="none" xmlns="http://www.w3.org/2000/svg">
<path fill-rule="evenodd" clip-rule="evenodd" d="M-93.5739 102.731L61.5747 13.1558C67.2152 9.89903 72.0828 7.08854 76.2709 5.03758C80.6797 2.8788 85.2906 1.06694 90.4872 0.385481C102.204 -1.14954 114.06 2.03705 123.442 9.24629C127.602 12.4426 130.692 16.325 133.436 20.4061C136.04 24.2834 138.855 29.159 142.117 34.8098L202.093 138.691C205.355 144.341 208.17 149.217 210.226 153.411C212.389 157.828 214.206 162.445 214.894 167.647C216.446 179.375 213.278 191.237 206.09 200.615C202.902 204.775 199.027 207.862 194.954 210.602C191.083 213.203 186.215 216.013 180.575 219.27L25.426 308.845C19.7848 312.102 14.9173 314.912 10.7302 316.964C6.32039 319.122 1.70943 320.933 -3.48625 321.614C-15.2037 323.151 -27.0589 319.963 -36.4412 312.755C-40.602 309.558 -43.6922 305.676 -46.4346 301.595C-49.0396 297.717 -51.8545 292.841 -55.1165 287.191L-115.092 183.31C-118.355 177.659 -121.17 172.784 -123.225 168.589C-125.389 164.173 -127.206 159.556 -127.894 154.355C-129.445 142.625 -126.278 130.765 -119.089 121.384C-115.902 117.225 -112.027 114.138 -107.953 111.399C-104.083 108.798 -99.2152 105.988 -93.5739 102.731ZM-97.8601 144.329C-96.2741 136.274 -88.4626 131.041 -80.4124 132.64L28.3007 154.231C35.6028 155.682 42.8432 151.502 45.238 144.453L80.896 39.5082C83.536 31.7374 91.9745 27.5888 99.7418 30.2433C107.511 32.8972 111.668 41.3482 109.028 49.119L73.3701 154.064C66.1846 175.212 44.4658 187.751 22.5584 183.4L-86.1552 161.808C-94.2054 160.209 -99.4458 152.383 -97.8601 144.329Z" fill="#04B159"/>
</svg>
