<svg width="52" height="52" viewBox="0 0 52 52" fill="none" xmlns="http://www.w3.org/2000/svg">
<g clip-path="url(#clip0_38_6378)">
<path d="M52 26C52 32.9449 49.2955 39.474 44.3848 44.3848C39.474 49.2955 32.9449 52 26 52C19.0551 52 12.526 49.2955 7.6152 44.3848C2.70445 39.474 0 32.9449 0 26C0 19.0551 2.70445 12.526 7.6152 7.6152C12.526 2.70445 19.0551 0 26 0C32.9449 0 39.474 2.70445 44.3848 7.6152C49.2955 12.526 52 19.0551 52 26Z" fill="#EFEFEF"/>
<path d="M52 26C52 32.9509 49.295 39.4853 44.3837 44.4005C41.7162 47.0702 38.5708 49.0893 35.1406 50.375V1.625C38.5708 2.91069 41.7162 4.92979 44.3837 7.59946C49.295 12.5147 52 19.0491 52 26Z" fill="#187F44"/>
<path d="M16.8594 1.625V50.375C13.4292 49.0893 10.2838 47.0702 7.6163 44.4005C2.70505 39.4853 0 32.9509 0 26C0 19.0491 2.70505 12.5147 7.6163 7.59946C10.2838 4.92979 13.4292 2.91069 16.8594 1.625Z" fill="#187F44"/>
<path opacity="0.13" d="M52 26.0049C52 32.9483 49.2959 39.4758 44.3863 44.3857C39.4767 49.2957 32.9497 52 26.0067 52C20.7088 52 15.6535 50.4255 11.375 47.4983C15.7661 49.4104 20.6095 50.0857 25.4738 49.4126C32.451 48.4472 38.6338 44.8216 42.8847 39.2055C47.1345 33.5883 48.9439 26.6526 47.9785 19.6761C47.1334 13.5778 44.2594 8.08639 39.7988 3.96094C41.4416 4.99258 42.9807 6.21841 44.3863 7.62408C49.2959 12.534 52 19.0615 52 26.0049Z" fill="#160204"/>
<path opacity="0.25" d="M38.3906 3.11362C33.7573 1.77763 28.8314 1.7136 24.0478 2.97781C17.0753 4.8217 11.2392 9.26909 7.61208 15.5008C3.98607 21.7335 3.00419 29.0042 4.84867 35.9745C5.97413 40.2297 8.07044 44.061 10.952 47.2266C9.77686 46.3896 8.66354 45.4478 7.62202 44.4066C2.70708 39.4933 0 32.9613 0 26.0131C0 19.0649 2.70708 12.5329 7.62202 7.61954C12.537 2.7062 19.0711 0 26.0216 0C30.4119 0 34.6354 1.07983 38.3906 3.11362Z" fill="white"/>
</g>
<defs>
<clipPath id="clip0_38_6378">
<rect width="52" height="52" fill="white"/>
</clipPath>
</defs>
</svg>
